<svg class="svg-icon" style="width: 1em;height: 1em;vertical-align: middle;fill: currentColor;overflow: hidden;" viewBox="0 0 1024 1024" version="1.1" xmlns="http://www.w3.org/2000/svg"><path d="M676.8 570.4H606c-25.8 0-50.6 7-72.4 20.3-21.2-9.6-44.7-15-69.4-15h-87.5c-93 0-168.7 75.7-168.7 168.7 0 39.4 32 71.5 71.4 71.5h281.9c30.3 0 56.3-19 66.6-45.7h127.5c33.4 0 60.5-27.2 60.5-60.6 0.1-76.7-62.3-139.2-139.1-139.2z m-72.6 176.3c0 0.3 0 0.5-0.1 0.8 0 0.5-0.1 0.9-0.1 1.4 0 0.1 0 0.3-0.1 0.4-2.4 21.4-20.6 38.1-42.6 38.1H279.4c-23.6 0-42.9-19.2-42.9-42.9 0-77.3 62.8-140.1 140.1-140.1h87.5c69.7 0 127.6 51.2 138.3 117.9 0.1 0.5 0.2 0.9 0.2 1.4 0.1 0.8 0.2 1.6 0.3 2.3l0.3 2.4c0.1 0.6 0.1 1.1 0.2 1.7 0.1 1.4 0.3 2.7 0.4 4.1 0 0.5 0.1 0.9 0.1 1.4 0.1 1.1 0.1 2.1 0.2 3.2 0 0.4 0 0.9 0.1 1.3 0 1.5 0.1 2.9 0.1 4.4-0.1 0.8-0.1 1.5-0.1 2.2z m151.3-5H632.8v-0.7c0-1-0.1-2.1-0.1-3.1 0-0.6 0-1.1-0.1-1.7-0.1-1.1-0.1-2.3-0.2-3.4-0.1-0.9-0.1-1.9-0.2-2.8-0.1-1-0.2-1.9-0.3-2.8l-0.3-3c-0.1-0.5-0.1-0.9-0.2-1.4-0.1-1.2-0.3-2.3-0.5-3.5 0-0.2-0.1-0.5-0.1-0.7-6.9-44.6-31.2-84.5-67.9-110.9 13.5-5.7 28.1-8.7 43-8.7h70.8c61 0 110.6 49.7 110.6 110.7 0.1 17.6-14.2 32-31.8 32zM288.1 498.3c35.4 31.7 82.4 49.2 132.3 49.2 41.3 0 80.7-12 113.1-34.1 28.8 25.3 67.4 39.6 107.9 39.6 85.4 0 154.8-62.8 154.8-140.1 0-77.2-69.4-140.1-154.8-140.1-21.9 0-43.6 4.2-63.4 12.3-7.2-10-15.6-19.3-25.2-27.9-35.4-31.7-82.4-49.2-132.3-49.2-49.9 0-96.9 17.5-132.3 49.2-35.9 32.1-55.6 74.9-55.6 120.6s19.6 88.4 55.5 120.5z m353.3-196.9c69.6 0 126.2 50 126.2 111.5S711 524.4 641.4 524.4c-31.8 0-62-10.5-85.2-29.3 32.6-30.7 51-70.6 52.1-113.2 0-1.4 0.1-2.8 0.1-4.1 0-23.7-5.3-46.7-15.5-67.8 15.2-5.7 31.8-8.6 48.5-8.6z m-221-64.8c68 0 126.1 37.9 149 91.1 0.3 0.8 0.7 1.6 1 2.3 0.2 0.4 0.3 0.7 0.4 1.1 0.4 1.1 0.9 2.2 1.3 3.3 0 0.1 0.1 0.2 0.1 0.4 3.5 9.6 5.8 19.6 6.8 29.7v0.3c0.1 1.2 0.2 2.5 0.3 3.7 0 0.3 0 0.6 0.1 0.9 0.1 1.1 0.1 2.2 0.2 3.3v1c0 1.4 0.1 2.7 0.1 4.1 0 1.3 0 2.5-0.1 3.7v0.4c0 1.1-0.1 2.2-0.2 3.4v0.1c-1.4 22.5-8.8 44.2-21.4 63.4-0.1 0.2-0.3 0.4-0.4 0.6-0.5 0.8-1 1.5-1.5 2.2-0.3 0.5-0.7 0.9-1 1.4-0.3 0.4-0.6 0.9-1 1.3-0.5 0.7-1 1.4-1.5 2-0.1 0.2-0.3 0.4-0.4 0.6-28.7 37.4-77.1 62-131.9 62-87.9 0-159.3-63.3-159.3-141.2s71.5-141.1 159.4-141.1z" fill="#333333" /><path d="M345.7 438c20 17.9 46.5 27.8 74.7 27.8s54.7-9.9 74.7-27.8c3.9-3.5 4.3-9.5 0.7-13.5-3.5-3.9-9.5-4.3-13.4-0.7-34.2 30.6-89.8 30.6-124 0-3.9-3.5-9.9-3.2-13.4 0.7-3.6 3.9-3.2 9.9 0.7 13.5z" fill="#333333" /></svg>